<svg height="512pt" viewBox="-12 0 511 512" width="512pt" xmlns="http://www.w3.org/2000/svg"><path d="m417.234375 75.257812c-46.105469-48.53125-107.464844-75.257812-172.773437-75.257812-65.308594 0-126.671876 26.726562-172.773438 75.257812-45.90625 48.316407-71.1875 112.507813-71.1875 180.742188s25.28125 132.425781 71.1875 180.742188c46.101562 48.53125 107.464844 75.257812 172.773438 75.257812 65.3125 0 126.667968-26.726562 172.773437-75.257812 45.90625-48.316407 71.1875-112.507813 71.1875-180.742188s-25.28125-132.425781-71.1875-180.742188zm-81.578125 320.851563c-23.71875 40.136719-56.105469 62.242187-91.195312 62.242187-35.089844 0-67.476563-22.105468-91.195313-62.242187-22.253906-37.664063-34.511719-87.421875-34.511719-140.109375s12.257813-102.445312 34.511719-140.109375c23.71875-40.136719 56.105469-62.242187 91.195313-62.242187 35.089843 0 67.476562 22.105468 91.195312 62.242187 22.253906 37.664063 34.511719 87.421875 34.511719 140.109375s-12.257813 102.445312-34.511719 140.109375zm0 0" fill="#ff0059"/><path d="m417.234375 75.257812c-46.105469-48.53125-107.460937-75.257812-172.773437-75.257812v53.648438c35.089843 0 67.476562 22.105468 91.195312 62.242187 22.253906 37.664063 34.511719 87.421875 34.511719 140.109375s-12.257813 102.445312-34.511719 140.109375c-23.71875 40.136719-56.105469 62.242187-91.195312 62.242187v53.648438c65.3125 0 126.667968-26.726562 172.773437-75.257812 45.90625-48.316407 71.1875-112.507813 71.1875-180.742188s-25.28125-132.425781-71.1875-180.742188zm0 0" fill="#d20041"/></svg>