<?xml version="1.0" encoding="UTF-8" standalone="no"?> <svg xmlns="http://www.w3.org/2000/svg" viewBox="0 0 64 64"><defs><style>.cls-1{fill:#78b9eb;}.cls-2{fill:#006df0;}</style></defs><g id="Layer_3" data-name="Layer 3"><path class="cls-1" d="M48.13,7.75H15.88a8.14,8.14,0,0,0-8.13,8.13V48.13a8.13,8.13,0,0,0,8.13,8.12H48.13a8.13,8.13,0,0,0,8.12-8.12V15.88A8.13,8.13,0,0,0,48.13,7.75ZM32,47.08A15.08,15.08,0,1,1,47.08,32,15.08,15.08,0,0,1,32,47.08Z"/><path class="cls-2" d="M8.75,26.09a1,1,0,0,0,1-1V15A5.25,5.25,0,0,1,15,9.75h10.1a1,1,0,1,0,0-2H15A7.25,7.25,0,0,0,7.75,15V25.09A1,1,0,0,0,8.75,26.09Z"/><path class="cls-2" d="M55.25,37.91a1,1,0,0,0-1,1V49A5.26,5.26,0,0,1,49,54.25H38.91a1,1,0,0,0,0,2H49A7.26,7.26,0,0,0,56.25,49V38.91A1,1,0,0,0,55.25,37.91Z"/><path class="cls-2" d="M25.09,54.25H15A5.25,5.25,0,0,1,9.75,49V38.91a1,1,0,0,0-2,0V49A7.25,7.25,0,0,0,15,56.25h10.1a1,1,0,1,0,0-2Z"/><path class="cls-2" d="M49,7.75H38.91a1,1,0,0,0,0,2H49A5.25,5.25,0,0,1,54.25,15v10.1a1,1,0,1,0,2,0V15A7.25,7.25,0,0,0,49,7.75Z"/><path class="cls-2" d="M43.37,20.63a16.07,16.07,0,1,0,0,22.74A16.1,16.1,0,0,0,43.37,20.63ZM32,46.08A14.08,14.08,0,1,1,42,42,14,14,0,0,1,32,46.08Z"/><path class="cls-2" d="M40.46,23.54a1,1,0,0,0-1.42,0l-7,7.05-7-7A1,1,0,0,0,23.54,25l7.05,7-7,7a1,1,0,0,0,0,1.42,1,1,0,0,0,1.42,0l7-7.05,7,7.05a1,1,0,0,0,1.42,0,1,1,0,0,0,0-1.42l-7.05-7,7.05-7A1,1,0,0,0,40.46,23.54Z"/></g></svg>