<svg width="60" height="60" viewBox="0 0 60 60" fill="none" xmlns="http://www.w3.org/2000/svg">
<circle cx="30" cy="30" r="30" fill="#C4C4C4"/>
<g clip-path="url(#clip0_1144:5923)">
<path fill-rule="evenodd" clip-rule="evenodd" d="M26.927 47.556C26.8947 47.556 26.8784 47.556 26.8461 47.5394L24.1938 46.8637C24.1777 46.8637 24.1453 46.8472 24.1292 46.8306L22.3826 45.9406V46.2702C22.3826 46.402 22.3178 46.5175 22.2046 46.567L21.3152 47.012C21.2666 47.0284 21.2181 47.0449 21.1695 47.0449C21.121 47.0449 21.0724 47.0284 21.0239 47.012L12.1615 42.4953C12.0483 42.4458 11.9836 42.3304 11.9836 42.1987V39.7426L9.05638 38.2589C8.94321 38.2094 8.87842 38.0941 8.87842 37.9622V34.3522C8.87842 34.2203 8.94321 34.105 9.05638 34.0555L10.3826 33.3798C10.4312 33.3632 10.4797 33.3467 10.5283 33.3467C10.5766 33.3467 10.6252 33.3632 10.6736 33.3796L12.6952 34.4183L13.0349 34.2369C13.0834 34.2203 13.132 34.204 13.1805 34.204C13.2289 34.204 13.2775 34.2203 13.326 34.2369L13.4877 34.3193L15.5578 31.6323L15.2666 31.484C15.1535 31.4346 15.0887 31.3192 15.0887 31.1873V26.1102L14.1669 25.6323C14.0538 25.5828 13.989 25.4675 13.989 25.3354V18.1156C13.989 17.9839 14.0538 17.8684 14.1669 17.8191L26.5712 11.5056C26.6198 11.4892 26.6683 11.4727 26.7169 11.4727C26.7654 11.4727 26.814 11.4892 26.8623 11.5056L33.8003 15.0497L34.0915 14.9012C34.14 14.8848 34.1886 14.8683 34.2371 14.8683C34.2855 14.8683 34.3341 14.8848 34.3826 14.9014L39.7033 17.6048C39.8164 17.6542 39.8812 17.7696 39.8812 17.9015V22.2034L46.7869 25.7309C46.9001 25.7804 46.9647 25.8957 46.9647 26.0278V28.0882L48.1131 28.6815C48.1292 28.6981 48.1615 28.7146 48.1777 28.731L50.83 30.9894C50.9109 31.0552 50.9432 31.1378 50.9432 31.2366V31.9123C50.9432 32.0444 50.8784 32.1598 50.7652 32.2092L48.9863 33.1158C48.9378 33.1322 48.8892 33.1488 48.8407 33.1488C48.7761 33.1488 48.7115 33.1322 48.6467 33.0829L46.9486 31.7806V32.4399L48.0969 33.1982L50.7169 34.0883C50.8461 34.1378 50.9432 34.2531 50.9432 34.4016V35.0773C50.9432 35.2093 50.8784 35.3247 50.7652 35.3742L48.9863 36.2808C48.9378 36.2971 48.8892 36.3137 48.8407 36.3137C48.8084 36.3137 48.7921 36.3137 48.7598 36.2971L46.1075 35.6214C46.0915 35.6214 46.059 35.6049 46.0429 35.5883L43.4877 34.2862L43.3583 34.3521C43.326 34.385 43.3098 34.4181 43.2612 34.4345C43.2127 34.4674 43.1481 34.484 43.0833 34.484C43.0347 34.484 42.9862 34.4674 42.9378 34.451L39.865 32.885V33.2477C39.865 33.3794 39.8003 33.495 39.6872 33.5445L27.2829 39.8578C27.2343 39.8742 27.1858 39.8907 27.1372 39.8907C27.0887 39.8907 27.0401 39.8742 26.9916 39.8578L25.2127 38.9512C25.0995 38.9017 25.0349 38.7864 25.0349 38.6543V38.2917C25.0024 38.3082 24.954 38.3082 24.9216 38.3082C24.873 38.3082 24.8245 38.2917 24.7761 38.2753L22.9972 37.3687C22.8838 37.3192 22.8192 37.2039 22.8192 37.0718V36.8247L22.1077 36.462C21.9944 36.4125 21.9298 36.2971 21.9298 36.1654V34.8136L17.9675 32.852L16.6089 34.5829L23.0618 37.8632C23.175 37.9127 23.2397 38.0281 23.2397 38.16V38.4565L26.1669 39.9402C26.1832 39.9566 26.2155 39.9731 26.2315 39.9897L28.8838 42.2479C28.9647 42.3139 28.9972 42.3963 28.9972 42.4953V43.171C28.9972 43.3029 28.9324 43.4184 28.8192 43.4677L27.0403 44.3743C26.9918 44.3909 26.9432 44.4072 26.8947 44.4072C26.83 44.4072 26.7652 44.3909 26.7005 44.3414L24.0807 42.3467L23.2235 42.0335V42.5446L26.1346 44.4567L28.7546 45.3469C28.8838 45.3964 28.9809 45.5118 28.9809 45.66V46.3359C28.9809 46.4678 28.9163 46.5834 28.803 46.6327L27.0241 47.5392C27.0241 47.5558 26.9755 47.5558 26.927 47.5558V47.556Z" fill="url(#paint0_linear_1144:5923)"/>
<path fill-rule="evenodd" clip-rule="evenodd" d="M26.7007 11.8019L28.0268 12.4776L28.4635 12.7085L30.2424 13.6152L33.7842 15.4284L34.221 15.1977L39.5578 17.9011V22.4176L46.6413 26.0276V28.2859L47.9675 28.9616L50.6198 31.22V31.8959L48.8408 32.8025L46.6413 31.0883V32.5881L47.9675 33.4618L50.6198 34.3686V35.0443L48.8408 35.951L46.1885 35.2751L43.4878 33.907L43.0833 34.1049V34.1542L39.5416 32.3409V33.2477L27.1373 39.561L25.3584 38.6544V37.7476L24.9216 37.5169V37.962L23.1427 37.0554V36.6104L22.2533 36.1653V34.5992L17.8705 32.4233L16.1076 34.6817L22.9162 38.1433V38.6378L26.0213 40.2203L28.6736 42.4787V43.1544L26.8947 44.0611L24.2424 42.0335L22.9164 41.5555V42.7094L26.0213 44.7368L28.6736 45.6436V46.3193L26.8947 47.2261L24.2424 46.5502L22.0592 45.4291V46.2864L21.1696 46.7316L12.3071 42.2149V39.5444L9.21833 37.9785V34.3686L10.5442 33.6927L12.7115 34.797L13.1967 34.5498L13.5847 34.7477L16.0753 31.5333L15.4124 31.2036V25.9122L14.3125 25.3517V18.1152L26.7007 11.8019ZM26.7007 11.1426C26.6036 11.1426 26.5065 11.1591 26.4096 11.2084L14.0213 17.5383C13.795 17.6537 13.6656 17.8845 13.6656 18.1318V25.3517C13.6656 25.5991 13.8112 25.8298 14.0213 25.9452L14.7655 26.3243V31.22C14.7655 31.4509 14.8787 31.6652 15.0729 31.7805L13.4071 33.9399C13.3423 33.9234 13.2777 33.907 13.1968 33.907C13.0997 33.907 13.0027 33.9234 12.9056 33.9728L12.7117 34.0718L10.8357 33.0992C10.7386 33.0497 10.6415 33.0333 10.5444 33.0333C10.4475 33.0333 10.3504 33.0497 10.2534 33.0992L8.9272 33.7751C8.71694 33.8904 8.57129 34.1213 8.57129 34.3686V37.9785C8.57129 38.2258 8.71694 38.4565 8.92704 38.572L11.6764 39.9731V42.2314C11.6764 42.4787 11.8221 42.7094 12.0322 42.8247L20.8949 47.3414C20.9918 47.3909 21.0888 47.4073 21.1859 47.4073C21.283 47.4073 21.38 47.3909 21.477 47.3414L22.3664 46.8964C22.4439 46.8563 22.5125 46.8005 22.5681 46.7325C22.6238 46.6645 22.6652 46.5856 22.6899 46.5007L23.9999 47.16C24.0484 47.1766 24.0807 47.193 24.1293 47.2095L26.7816 47.8852C26.8301 47.9018 26.8787 47.9018 26.9433 47.9018C27.0404 47.9018 27.1375 47.8854 27.2344 47.8359L29.0133 46.9293C29.2398 46.814 29.3691 46.5831 29.3691 46.3359V45.6601C29.3691 45.3798 29.1913 45.116 28.9324 45.0336L27.4931 44.5391L29.0133 43.7644C29.2398 43.649 29.3691 43.4182 29.3691 43.1709V42.4952C29.3691 42.2973 29.2882 42.1159 29.1427 41.9842L27.0404 40.2038C27.0889 40.2203 27.1375 40.2203 27.1696 40.2203C27.2667 40.2203 27.3638 40.2038 27.4609 40.1544L39.865 33.8409C40.043 33.7585 40.1563 33.5937 40.2047 33.4125L42.8247 34.7477C42.9218 34.7972 43.0187 34.8136 43.1158 34.8136C43.229 34.8136 43.3584 34.7806 43.4553 34.7146C43.4878 34.6982 43.5039 34.6817 43.5362 34.6487L45.9298 35.8686C45.9784 35.885 46.0107 35.9015 46.0592 35.9181L48.7115 36.5938C48.7601 36.6104 48.8086 36.6104 48.8732 36.6104C48.9703 36.6104 49.0673 36.5938 49.1642 36.5443L50.9433 35.6377C51.1696 35.5224 51.299 35.2917 51.299 35.0443V34.3686C51.299 34.0882 51.1212 33.8246 50.8624 33.7421L49.423 33.2477L50.9431 32.473C51.1696 32.3574 51.299 32.1266 51.299 31.8795V31.2036C51.299 31.0057 51.2182 30.8245 51.0727 30.6926L48.3718 28.4508C48.3351 28.414 48.291 28.3858 48.2424 28.3683L47.2721 27.8738V26.0112C47.2721 25.7638 47.1265 25.5331 46.9164 25.4177L40.1885 21.989V17.9011C40.1885 17.6537 40.0428 17.423 39.8327 17.3076L34.5283 14.6042C34.4312 14.5548 34.3341 14.5382 34.2372 14.5382C34.1401 14.5382 34.043 14.5548 33.9461 14.6042L33.8004 14.6867L30.55 13.0218L28.7707 12.1152L28.3341 11.8843L27.0079 11.2086C26.9108 11.1591 26.8139 11.1426 26.7007 11.1426V11.1426ZM17.1427 34.4673L18.0807 33.264L21.6225 35.0279V36.1817C21.6225 36.4291 21.7681 36.6598 21.9784 36.7752L22.5119 37.039V37.0885C22.5119 37.138 22.5119 37.1873 22.5282 37.2202L17.1427 34.4673ZM23.5956 38.2423V38.1599C23.5956 38.1104 23.5956 38.0609 23.5793 38.028L24.6467 38.572C24.679 38.5884 24.6953 38.6049 24.7276 38.6049V38.6544C24.7276 38.7203 24.7438 38.7863 24.7599 38.8356L23.5956 38.2423Z" fill="#333333"/>
<path fill-rule="evenodd" clip-rule="evenodd" d="M39.5576 33.2472L27.1533 39.5605V32.3404L39.5576 26.0107V33.2472Z" fill="url(#paint1_linear_1144:5923)" stroke="#333333"/>
<path fill-rule="evenodd" clip-rule="evenodd" d="M36.8892 21.9562V29.1761L45.7515 33.6928V26.4728L36.8892 21.9561V21.9562Z" fill="url(#paint2_linear_1144:5923)" stroke="#333333"/>
<path fill-rule="evenodd" clip-rule="evenodd" d="M45.752 26.4723V33.6924L46.6416 33.2472V26.0107L45.752 26.4723Z" fill="url(#paint3_linear_1144:5923)" stroke="#333333"/>
<path fill-rule="evenodd" clip-rule="evenodd" d="M36.8892 21.9559L37.7786 21.5107L46.6412 26.0109L45.7515 26.4725L36.8892 21.9558V21.9559Z" fill="url(#paint4_linear_1144:5923)" stroke="#333333"/>
<path fill-rule="evenodd" clip-rule="evenodd" d="M37.7784 23.2744L35.9995 24.1646L43.0994 27.7746L44.8621 26.8845L37.7784 23.2744Z" fill="#676767" stroke="#333333"/>
<path fill-rule="evenodd" clip-rule="evenodd" d="M33.3472 22.8623L32.021 23.5382L37.3418 26.2416L38.668 25.5658L33.3472 22.8623Z" fill="#676767" stroke="#333333"/>
<path fill-rule="evenodd" clip-rule="evenodd" d="M32.021 23.5381V27.148L37.3418 29.8514V26.2416L32.021 23.5383V23.5381Z" fill="#676767" stroke="#333333"/>
<path fill-rule="evenodd" clip-rule="evenodd" d="M35.9995 24.2139V30.5272L43.0994 34.1371V27.8238L35.9995 24.2139Z" fill="#676767" stroke="#333333"/>
<path fill-rule="evenodd" clip-rule="evenodd" d="M44.862 26.8849L43.0991 27.775V34.1048L44.862 33.1983V26.8848V26.8849Z" fill="#676767" stroke="#333333"/>
<path fill-rule="evenodd" clip-rule="evenodd" d="M43.0991 32.3408V33.6924L46.188 35.2749V34.3683L43.0991 32.3408Z" fill="url(#paint5_linear_1144:5923)" stroke="#333333"/>
<path fill-rule="evenodd" clip-rule="evenodd" d="M46.188 34.3691V35.2757L48.8403 35.9516V35.2759L46.188 34.3691Z" fill="url(#paint6_linear_1144:5923)" stroke="#333333"/>
<path fill-rule="evenodd" clip-rule="evenodd" d="M48.8403 35.2756V35.9514L50.6194 35.0449V34.3691L48.8403 35.2756Z" fill="url(#paint7_linear_1144:5923)" stroke="#333333"/>
<path fill-rule="evenodd" clip-rule="evenodd" d="M47.9669 33.4619L46.188 34.3685L48.8403 35.2751L50.6193 34.3685L47.9669 33.4621V33.4619Z" fill="url(#paint8_linear_1144:5923)" stroke="#333333"/>
<path fill-rule="evenodd" clip-rule="evenodd" d="M44.862 31.4346L43.0991 32.3412L46.188 34.3686L47.9671 33.4621L44.862 31.4346Z" fill="url(#paint9_linear_1144:5923)" stroke="#333333"/>
<path fill-rule="evenodd" clip-rule="evenodd" d="M43.0991 28.2695V29.6211L46.188 30.7586V29.852L43.0991 28.2695Z" fill="url(#paint10_linear_1144:5923)" stroke="#333333"/>
<path fill-rule="evenodd" clip-rule="evenodd" d="M46.188 29.8517V30.7583L48.8403 32.7858V32.1101L46.188 29.8516V29.8517Z" fill="url(#paint11_linear_1144:5923)" stroke="#333333"/>
<path fill-rule="evenodd" clip-rule="evenodd" d="M48.8403 32.1095V32.7854L50.6194 31.8788V31.2031L48.8403 32.1095Z" fill="url(#paint12_linear_1144:5923)" stroke="#333333"/>
<path fill-rule="evenodd" clip-rule="evenodd" d="M44.862 27.3789L43.0991 28.2691L46.188 29.8516L47.9671 28.9448L44.862 27.3789Z" fill="url(#paint13_linear_1144:5923)" stroke="#333333"/>
<path fill-rule="evenodd" clip-rule="evenodd" d="M47.9669 28.9453L46.188 29.8521L48.8403 32.1103L50.6193 31.2037L47.9669 28.9453Z" fill="url(#paint14_linear_1144:5923)" stroke="#333333"/>
<path fill-rule="evenodd" clip-rule="evenodd" d="M15.4121 18.3467V31.204L23.6117 35.2757V22.4016L15.4121 18.3467Z" fill="#676767" stroke="#333333"/>
<path fill-rule="evenodd" clip-rule="evenodd" d="M20.5065 21.2803V27.8245L22.2854 28.9455V36.1818L26.7005 38.4236V24.4454L20.5063 21.2804L20.5065 21.2803Z" fill="#676767" stroke="#333333"/>
<path fill-rule="evenodd" clip-rule="evenodd" d="M28.0425 12.4775L15.8647 18.791L26.4901 24.2141L38.6681 17.9007L28.0425 12.4775Z" fill="#676767" stroke="#333333"/>
<path fill-rule="evenodd" clip-rule="evenodd" d="M14.3125 18.1151L26.7007 11.8018L33.8004 15.4117L21.3962 21.7252L14.3125 18.1151Z" fill="url(#paint15_linear_1144:5923)" stroke="#333333"/>
<path fill-rule="evenodd" clip-rule="evenodd" d="M26.7007 13.6156L28.4796 12.709L30.2587 13.6157L28.4796 14.5058L26.7007 13.6157V13.6156Z" fill="url(#paint16_linear_1144:5923)" stroke="#333333"/>
<path fill-rule="evenodd" clip-rule="evenodd" d="M26.7007 25.335L39.105 19.0215V32.5549L26.7007 38.8848V25.335Z" fill="#676767" stroke="#333333"/>
<path fill-rule="evenodd" clip-rule="evenodd" d="M17.854 18.1152L19.6168 19.022L28.4796 14.5053L26.7005 13.6152L17.854 18.1152Z" fill="#676767" stroke="#333333"/>
<path fill-rule="evenodd" clip-rule="evenodd" d="M26.7007 15.4119L28.043 14.7361L28.4796 14.5053L26.7007 13.6152V15.412V15.4119Z" fill="#676767" stroke="#333333"/>
<path fill-rule="evenodd" clip-rule="evenodd" d="M25.8271 15.8575L26.2639 15.6431L27.1534 15.1816L25.8271 14.5059V15.8573V15.8575Z" fill="#333333" stroke="#333333"/>
<path fill-rule="evenodd" clip-rule="evenodd" d="M25.8271 14.5052L27.1534 15.1809L27.59 14.9667L26.2639 14.291L25.8271 14.5052Z" fill="#676767" stroke="#333333"/>
<path fill-rule="evenodd" clip-rule="evenodd" d="M24.938 16.3184L25.3746 16.0875L26.2642 15.6425L24.938 14.9668V16.3182V16.3184Z" fill="#333333" stroke="#333333"/>
<path fill-rule="evenodd" clip-rule="evenodd" d="M24.938 14.967L26.2642 15.6427L26.7008 15.412L25.3746 14.7363L24.938 14.967Z" fill="#676767" stroke="#333333"/>
<path fill-rule="evenodd" clip-rule="evenodd" d="M24.0483 16.7627L24.5012 16.5319L25.3744 16.0868L24.0483 15.4111V16.7626V16.7627Z" fill="#333333" stroke="#333333"/>
<path fill-rule="evenodd" clip-rule="evenodd" d="M24.0483 15.4114L25.3744 16.0872L25.8272 15.8565L24.5012 15.1807L24.0483 15.4114Z" fill="#676767" stroke="#333333"/>
<path fill-rule="evenodd" clip-rule="evenodd" d="M23.1592 17.2256L23.612 16.9947L24.5015 16.5331L23.1592 15.8574V17.2256Z" fill="#333333" stroke="#333333"/>
<path fill-rule="evenodd" clip-rule="evenodd" d="M23.1592 15.8569L24.5015 16.5326L24.9381 16.3185L23.612 15.6426L23.1592 15.8569Z" fill="#676767" stroke="#333333"/>
<path fill-rule="evenodd" clip-rule="evenodd" d="M22.2856 17.67L22.7223 17.4393L23.6119 16.9941L22.2856 16.3184V17.67Z" fill="#333333" stroke="#333333"/>
<path fill-rule="evenodd" clip-rule="evenodd" d="M22.2856 16.3186L23.6119 16.9943L24.0485 16.7636L22.7223 16.0879L22.2856 16.3186Z" fill="#676767" stroke="#333333"/>
<path fill-rule="evenodd" clip-rule="evenodd" d="M21.396 18.1153L21.8326 17.9011L22.7221 17.4396L21.396 16.7637V18.1153Z" fill="#333333" stroke="#333333"/>
<path fill-rule="evenodd" clip-rule="evenodd" d="M21.396 16.7641L22.7221 17.4398L23.1588 17.2256L21.8326 16.5332L21.396 16.7641Z" fill="#676767" stroke="#333333"/>
<path fill-rule="evenodd" clip-rule="evenodd" d="M20.5068 18.5762L20.9595 18.3455L21.8329 17.9005L20.5068 17.2246V18.5762Z" fill="#333333" stroke="#333333"/>
<path fill-rule="evenodd" clip-rule="evenodd" d="M20.5068 17.2248L21.8329 17.9006L22.2857 17.6699L20.9595 16.9941L20.5068 17.2248Z" fill="#676767" stroke="#333333"/>
<path fill-rule="evenodd" clip-rule="evenodd" d="M19.6167 19.0215L20.0695 18.7907L20.959 18.3456L19.6167 17.6699V19.0213V19.0215Z" fill="#333333" stroke="#333333"/>
<path fill-rule="evenodd" clip-rule="evenodd" d="M19.6167 17.6702L20.959 18.3459L21.3958 18.1152L20.0695 17.4395L19.6167 17.6702Z" fill="#676767" stroke="#333333"/>
<path fill-rule="evenodd" clip-rule="evenodd" d="M18.7441 19.4678L19.1807 19.2535L20.0702 18.7919L18.7441 18.1162V19.4676V19.4678Z" fill="#333333" stroke="#333333"/>
<path fill-rule="evenodd" clip-rule="evenodd" d="M18.7441 18.1155L20.0702 18.7914L20.507 18.5771L19.1807 17.9014L18.7441 18.1155Z" fill="#676767" stroke="#333333"/>
<path fill-rule="evenodd" clip-rule="evenodd" d="M28.4797 28.5004V31.2038L31.5846 29.6213V26.918L28.4795 28.5004H28.4797Z" fill="#36A3C9" stroke="#010101"/>
<path fill-rule="evenodd" clip-rule="evenodd" d="M30.6952 29.1767V27.3799L28.4795 28.5008V30.314L30.6952 29.1767Z" fill="#50C8EC"/>
<path fill-rule="evenodd" clip-rule="evenodd" d="M31.5851 29.6217V26.918L29.3694 28.0556L28.48 28.5006" fill="url(#paint17_linear_1144:5923)"/>
<path fill-rule="evenodd" clip-rule="evenodd" d="M28.4797 28.5004V31.2038L31.5846 29.6213V26.918L28.4795 28.5004H28.4797Z" stroke="#333333"/>
<path fill-rule="evenodd" clip-rule="evenodd" d="M34.2373 25.5659V28.2692L37.3424 26.7033V23.9834L34.2373 25.5659Z" fill="#36A3C9" stroke="#010101"/>
<path fill-rule="evenodd" clip-rule="evenodd" d="M36.453 26.2421V24.4453L34.2373 25.566V27.3794L36.453 26.2419V26.2421Z" fill="#50C8EC"/>
<path fill-rule="evenodd" clip-rule="evenodd" d="M37.3424 26.7033V23.9834L35.1269 25.1205L34.2373 25.5657" fill="url(#paint18_linear_1144:5923)"/>
<path fill-rule="evenodd" clip-rule="evenodd" d="M34.2373 25.5659V28.2692L37.3424 26.7033V23.9834L34.2373 25.5659V25.5659Z" stroke="#333333"/>
<path fill-rule="evenodd" clip-rule="evenodd" d="M21.3962 27.1485V21.7254L14.3125 18.1152V25.3353L23.159 29.852V37.0719L24.9379 37.9785V30.7584L26.7007 31.6652V29.8518L21.3962 27.1485Z" fill="url(#paint19_linear_1144:5923)" stroke="#333333"/>
<path fill-rule="evenodd" clip-rule="evenodd" d="M39.5576 33.2472L27.1533 39.5605V32.3404L39.5576 26.0107V33.2472Z" fill="url(#paint20_linear_1144:5923)" stroke="#333333"/>
<path fill-rule="evenodd" clip-rule="evenodd" d="M25.3745 31.4347V38.6547L27.1536 39.5612V32.3412L25.3745 31.4346V31.4347Z" fill="url(#paint21_linear_1144:5923)" stroke="#333333"/>
<path fill-rule="evenodd" clip-rule="evenodd" d="M39.5581 23.3073L27.1538 29.6206V24.2139L39.5581 17.9004V23.3075V23.3073Z" fill="url(#paint22_linear_1144:5923)" stroke="#333333"/>
<path fill-rule="evenodd" clip-rule="evenodd" d="M21.833 21.5105L34.2373 15.1807L39.5581 17.9006L27.1538 24.2139L21.833 21.5105Z" fill="url(#paint23_linear_1144:5923)" stroke="#333333"/>
<path fill-rule="evenodd" clip-rule="evenodd" d="M29.8062 21.0487L33.3479 19.252L35.1268 20.1585L31.5851 21.9553L29.8062 21.0487Z" fill="url(#paint24_linear_1144:5923)" stroke="#333333"/>
<path fill-rule="evenodd" clip-rule="evenodd" d="M21.833 21.5107V26.9175L27.1538 29.6208V24.2141L21.833 21.5107Z" fill="url(#paint25_linear_1144:5923)" stroke="#333333"/>
<path fill-rule="evenodd" clip-rule="evenodd" d="M27.1535 32.3409L39.5578 26.0112L39.105 25.7969L26.7007 32.1102L27.1535 32.3409Z" fill="url(#paint26_linear_1144:5923)" stroke="#333333"/>
<path fill-rule="evenodd" clip-rule="evenodd" d="M17.6279 28.7305V30.9888L19.407 31.879V29.6207L17.6279 28.7305Z" fill="#333333" stroke="#333333"/>
<path fill-rule="evenodd" clip-rule="evenodd" d="M12.3232 36.3955V37.978L13.1966 38.423V36.8571L12.3232 36.3955Z" fill="#676767" stroke="#333333"/>
<path fill-rule="evenodd" clip-rule="evenodd" d="M18.081 28.9453L12.3237 36.3961L13.1969 36.8576L18.9542 29.4069L18.081 28.9453Z" fill="#676767" stroke="#333333"/>
<path fill-rule="evenodd" clip-rule="evenodd" d="M13.1968 36.857V38.4229L19.407 30.5272V29.6206L18.9542 29.4062L13.1968 36.857Z" fill="#676767" stroke="#333333"/>
<path fill-rule="evenodd" clip-rule="evenodd" d="M15.8644 34.5498L14.0854 35.4566L21.1689 39.0665L22.948 38.1599L15.8644 34.5498Z" fill="#676767" stroke="#333333"/>
<path fill-rule="evenodd" clip-rule="evenodd" d="M10.544 33.6924L9.21777 34.3681L15.412 37.5332L16.7379 36.8573L10.544 33.6924Z" fill="#676767" stroke="#333333"/>
<path fill-rule="evenodd" clip-rule="evenodd" d="M9.21777 34.3682V37.9781L15.412 41.1431V37.5331L9.21777 34.3682Z" fill="#676767" stroke="#333333"/>
<path fill-rule="evenodd" clip-rule="evenodd" d="M14.0854 35.4893V41.8191L21.1689 45.4291V39.0992L14.0854 35.4893Z" fill="#676767" stroke="#333333"/>
<path fill-rule="evenodd" clip-rule="evenodd" d="M22.9483 38.1594L21.1694 39.0659V45.3793L22.9485 44.4727V38.1592L22.9483 38.1594Z" fill="#676767" stroke="#333333"/>
<path fill-rule="evenodd" clip-rule="evenodd" d="M21.1699 43.6162V44.968L24.2749 46.5504V45.6437L21.1699 43.6162Z" fill="url(#paint27_linear_1144:5923)" stroke="#333333"/>
<path fill-rule="evenodd" clip-rule="evenodd" d="M24.2739 45.6426V46.5493L26.9262 47.225V46.5493L24.2739 45.6426Z" fill="url(#paint28_linear_1144:5923)" stroke="#333333"/>
<path fill-rule="evenodd" clip-rule="evenodd" d="M26.9268 46.5493V47.225L28.7058 46.335V45.6426L26.9268 46.5493Z" fill="url(#paint29_linear_1144:5923)" stroke="#333333"/>
<path fill-rule="evenodd" clip-rule="evenodd" d="M26.0368 44.7529L24.2739 45.643L26.9262 46.5497L28.7053 45.643L26.0368 44.7529Z" fill="url(#paint30_linear_1144:5923)" stroke="#333333"/>
<path fill-rule="evenodd" clip-rule="evenodd" d="M22.9485 42.7256L21.1694 43.6156L24.2746 45.6431L26.0374 44.7531L22.9485 42.7256Z" fill="url(#paint31_linear_1144:5923)" stroke="#333333"/>
<path fill-rule="evenodd" clip-rule="evenodd" d="M21.1699 39.5605V40.9121L24.2749 42.0332V41.143L21.1699 39.5605Z" fill="url(#paint32_linear_1144:5923)" stroke="#333333"/>
<path fill-rule="evenodd" clip-rule="evenodd" d="M24.2744 41.1436V42.0336L26.9267 44.0778V43.4016L24.2744 41.1436Z" fill="url(#paint33_linear_1144:5923)" stroke="#333333"/>
<path fill-rule="evenodd" clip-rule="evenodd" d="M26.9272 43.4015V44.0774L28.7063 43.1708V42.4951L26.9272 43.4014V43.4015Z" fill="url(#paint34_linear_1144:5923)" stroke="#333333"/>
<path fill-rule="evenodd" clip-rule="evenodd" d="M22.9485 38.6543L21.1694 39.5607L24.2746 41.1432L26.0374 40.2364L22.9485 38.6543Z" fill="url(#paint35_linear_1144:5923)" stroke="#333333"/>
<path fill-rule="evenodd" clip-rule="evenodd" d="M26.0372 40.2365L24.2744 41.1433L26.9267 43.4013L28.7058 42.4947L26.0372 40.2363V40.2365Z" fill="url(#paint36_linear_1144:5923)" stroke="#333333"/>
<path fill-rule="evenodd" clip-rule="evenodd" d="M12.3228 34.9951V42.2317L21.1691 46.7317V39.5118L12.3228 34.9951Z" fill="url(#paint37_linear_1144:5923)" stroke="#333333"/>
<path fill-rule="evenodd" clip-rule="evenodd" d="M21.1689 39.5116V46.7315L22.0586 46.2865V39.0664L21.1689 39.5116Z" fill="url(#paint38_linear_1144:5923)" stroke="#333333"/>
<path fill-rule="evenodd" clip-rule="evenodd" d="M12.3228 34.9948L13.1961 34.5498L22.0587 39.0665L21.1691 39.5115L12.3228 34.9948Z" fill="url(#paint39_linear_1144:5923)" stroke="#333333"/>
<path fill-rule="evenodd" clip-rule="evenodd" d="M16.0752 19.022L17.8543 18.1152L19.6171 19.022L17.8543 19.9286L16.0752 19.022Z" fill="url(#paint40_linear_1144:5923)" stroke="#333333"/>
</g>
<defs>
<linearGradient id="paint0_linear_1144:5923" x1="14.0368" y1="17.9334" x2="36.2775" y2="48.7405" gradientUnits="userSpaceOnUse">
<stop stop-color="white"/>
<stop offset="1" stop-color="#F3F3F3"/>
</linearGradient>
<linearGradient id="paint1_linear_1144:5923" x1="30.0295" y1="29.4032" x2="37.2129" y2="35.5393" gradientUnits="userSpaceOnUse">
<stop stop-color="white"/>
<stop offset="1" stop-color="#CDCCCC"/>
</linearGradient>
<linearGradient id="paint2_linear_1144:5923" x1="36.2286" y1="22.6337" x2="48.3513" y2="29.6791" gradientUnits="userSpaceOnUse">
<stop stop-color="#E6E6E5"/>
<stop offset="1" stop-color="#B4B4B4"/>
</linearGradient>
<linearGradient id="paint3_linear_1144:5923" x1="44.3098" y1="27.9365" x2="48.1259" y2="27.9887" gradientUnits="userSpaceOnUse">
<stop stop-color="#E6E6E5"/>
<stop offset="1" stop-color="#B4B4B4"/>
</linearGradient>
<linearGradient id="paint4_linear_1144:5923" x1="38.332" y1="20.4897" x2="40.4169" y2="28.6989" gradientUnits="userSpaceOnUse">
<stop stop-color="white"/>
<stop offset="1" stop-color="#F3F3F3"/>
</linearGradient>
<linearGradient id="paint5_linear_1144:5923" x1="43.0364" y1="32.3935" x2="45.8615" y2="35.5849" gradientUnits="userSpaceOnUse">
<stop stop-color="#E6E6E5"/>
<stop offset="1" stop-color="#B4B4B4"/>
</linearGradient>
<linearGradient id="paint6_linear_1144:5923" x1="46.4127" y1="34.1432" x2="47.3087" y2="36.7087" gradientUnits="userSpaceOnUse">
<stop stop-color="#E6E6E5"/>
<stop offset="1" stop-color="#B4B4B4"/>
</linearGradient>
<linearGradient id="paint7_linear_1144:5923" x1="49.3463" y1="34.7638" x2="50.0202" y2="35.6319" gradientUnits="userSpaceOnUse">
<stop stop-color="#E6E6E5"/>
<stop offset="1" stop-color="#B4B4B4"/>
</linearGradient>
<linearGradient id="paint8_linear_1144:5923" x1="46.1913" y1="34.3682" x2="50.6193" y2="34.3682" gradientUnits="userSpaceOnUse">
<stop stop-color="white"/>
<stop offset="1" stop-color="#F3F3F3"/>
</linearGradient>
<linearGradient id="paint9_linear_1144:5923" x1="43.0918" y1="32.9016" x2="47.9626" y2="32.9016" gradientUnits="userSpaceOnUse">
<stop stop-color="white"/>
<stop offset="1" stop-color="#F3F3F3"/>
</linearGradient>
<linearGradient id="paint10_linear_1144:5923" x1="43.1471" y1="28.219" x2="45.2242" y2="31.4795" gradientUnits="userSpaceOnUse">
<stop stop-color="#E6E6E5"/>
<stop offset="1" stop-color="#B4B4B4"/>
</linearGradient>
<linearGradient id="paint11_linear_1144:5923" x1="46.0806" y1="29.9675" x2="49.1018" y2="32.4836" gradientUnits="userSpaceOnUse">
<stop stop-color="#E6E6E5"/>
<stop offset="1" stop-color="#B4B4B4"/>
</linearGradient>
<linearGradient id="paint12_linear_1144:5923" x1="49.3463" y1="31.6034" x2="50.0202" y2="32.4715" gradientUnits="userSpaceOnUse">
<stop stop-color="#E6E6E5"/>
<stop offset="1" stop-color="#B4B4B4"/>
</linearGradient>
<linearGradient id="paint13_linear_1144:5923" x1="43.0918" y1="28.6135" x2="47.9626" y2="28.6135" gradientUnits="userSpaceOnUse">
<stop stop-color="white"/>
<stop offset="1" stop-color="#F3F3F3"/>
</linearGradient>
<linearGradient id="paint14_linear_1144:5923" x1="46.1913" y1="30.532" x2="50.6193" y2="30.532" gradientUnits="userSpaceOnUse">
<stop stop-color="white"/>
<stop offset="1" stop-color="#F3F3F3"/>
</linearGradient>
<linearGradient id="paint15_linear_1144:5923" x1="19.8453" y1="12.4787" x2="22.4056" y2="22.5429" gradientUnits="userSpaceOnUse">
<stop stop-color="white"/>
<stop offset="1" stop-color="#F3F3F3"/>
</linearGradient>
<linearGradient id="paint16_linear_1144:5923" x1="27.5943" y1="12.705" x2="28.1238" y2="14.821" gradientUnits="userSpaceOnUse">
<stop stop-color="white"/>
<stop offset="1" stop-color="#F3F3F3"/>
</linearGradient>
<linearGradient id="paint17_linear_1144:5923" x1="31.3283" y1="26.7735" x2="30.1775" y2="29.4534" gradientUnits="userSpaceOnUse">
<stop stop-color="#FDFEFF" stop-opacity="0"/>
<stop offset="0.9104" stop-color="#FDFEFF" stop-opacity="0.91"/>
<stop offset="1" stop-color="#FDFEFF"/>
</linearGradient>
<linearGradient id="paint18_linear_1144:5923" x1="37.0845" y1="23.8395" x2="35.9216" y2="26.5153" gradientUnits="userSpaceOnUse">
<stop stop-color="#FDFEFF" stop-opacity="0"/>
<stop offset="0.9104" stop-color="#FDFEFF" stop-opacity="0.91"/>
<stop offset="1" stop-color="#FDFEFF"/>
</linearGradient>
<linearGradient id="paint19_linear_1144:5923" x1="12.7605" y1="19.7001" x2="31.0282" y2="26.9425" gradientUnits="userSpaceOnUse">
<stop stop-color="#E6E6E5"/>
<stop offset="1" stop-color="#B4B4B4"/>
</linearGradient>
<linearGradient id="paint20_linear_1144:5923" x1="30.0295" y1="29.4032" x2="37.2129" y2="35.5393" gradientUnits="userSpaceOnUse">
<stop stop-color="white"/>
<stop offset="1" stop-color="#CDCCCC"/>
</linearGradient>
<linearGradient id="paint21_linear_1144:5923" x1="23.8304" y1="33.0145" x2="28.9318" y2="33.2637" gradientUnits="userSpaceOnUse">
<stop stop-color="#E6E6E5"/>
<stop offset="1" stop-color="#B4B4B4"/>
</linearGradient>
<linearGradient id="paint22_linear_1144:5923" x1="30.4728" y1="20.8279" x2="35.8798" y2="27.0011" gradientUnits="userSpaceOnUse">
<stop stop-color="white"/>
<stop offset="1" stop-color="#CDCCCC"/>
</linearGradient>
<linearGradient id="paint23_linear_1144:5923" x1="27.1518" y1="16.089" x2="29.3116" y2="24.5652" gradientUnits="userSpaceOnUse">
<stop stop-color="white"/>
<stop offset="1" stop-color="#F3F3F3"/>
</linearGradient>
<linearGradient id="paint24_linear_1144:5923" x1="31.3584" y1="19.4737" x2="32.029" y2="22.1213" gradientUnits="userSpaceOnUse">
<stop stop-color="white"/>
<stop offset="1" stop-color="#F3F3F3"/>
</linearGradient>
<linearGradient id="paint25_linear_1144:5923" x1="21.174" y1="22.1822" x2="29.2347" y2="25.7185" gradientUnits="userSpaceOnUse">
<stop stop-color="#E6E6E5"/>
<stop offset="1" stop-color="#B4B4B4"/>
</linearGradient>
<linearGradient id="paint26_linear_1144:5923" x1="31.4135" y1="27.3163" x2="32.4568" y2="31.421" gradientUnits="userSpaceOnUse">
<stop stop-color="white"/>
<stop offset="1" stop-color="#F3F3F3"/>
</linearGradient>
<linearGradient id="paint27_linear_1144:5923" x1="21.1186" y1="43.677" x2="23.9265" y2="46.882" gradientUnits="userSpaceOnUse">
<stop stop-color="#E6E6E5"/>
<stop offset="1" stop-color="#B4B4B4"/>
</linearGradient>
<linearGradient id="paint28_linear_1144:5923" x1="24.4939" y1="45.4248" x2="25.3898" y2="47.9902" gradientUnits="userSpaceOnUse">
<stop stop-color="#E6E6E5"/>
<stop offset="1" stop-color="#B4B4B4"/>
</linearGradient>
<linearGradient id="paint29_linear_1144:5923" x1="27.428" y1="46.0453" x2="28.1019" y2="46.9135" gradientUnits="userSpaceOnUse">
<stop stop-color="#E6E6E5"/>
<stop offset="1" stop-color="#B4B4B4"/>
</linearGradient>
<linearGradient id="paint30_linear_1144:5923" x1="24.2725" y1="45.6509" x2="28.7005" y2="45.6509" gradientUnits="userSpaceOnUse">
<stop stop-color="white"/>
<stop offset="1" stop-color="#F3F3F3"/>
</linearGradient>
<linearGradient id="paint31_linear_1144:5923" x1="21.1735" y1="44.1842" x2="26.0443" y2="44.1842" gradientUnits="userSpaceOnUse">
<stop stop-color="white"/>
<stop offset="1" stop-color="#F3F3F3"/>
</linearGradient>
<linearGradient id="paint32_linear_1144:5923" x1="21.2294" y1="39.5017" x2="23.2669" y2="42.7766" gradientUnits="userSpaceOnUse">
<stop stop-color="#E6E6E5"/>
<stop offset="1" stop-color="#B4B4B4"/>
</linearGradient>
<linearGradient id="paint33_linear_1144:5923" x1="24.1622" y1="41.2511" x2="27.1835" y2="43.7673" gradientUnits="userSpaceOnUse">
<stop stop-color="#E6E6E5"/>
<stop offset="1" stop-color="#B4B4B4"/>
</linearGradient>
<linearGradient id="paint34_linear_1144:5923" x1="27.4284" y1="42.887" x2="28.1023" y2="43.7552" gradientUnits="userSpaceOnUse">
<stop stop-color="#E6E6E5"/>
<stop offset="1" stop-color="#B4B4B4"/>
</linearGradient>
<linearGradient id="paint35_linear_1144:5923" x1="21.1735" y1="39.8968" x2="26.0443" y2="39.8968" gradientUnits="userSpaceOnUse">
<stop stop-color="white"/>
<stop offset="1" stop-color="#F3F3F3"/>
</linearGradient>
<linearGradient id="paint36_linear_1144:5923" x1="24.273" y1="41.8146" x2="28.701" y2="41.8146" gradientUnits="userSpaceOnUse">
<stop stop-color="white"/>
<stop offset="1" stop-color="#F3F3F3"/>
</linearGradient>
<linearGradient id="paint37_linear_1144:5923" x1="11.653" y1="35.6792" x2="23.7815" y2="42.7024" gradientUnits="userSpaceOnUse">
<stop stop-color="#E6E6E5"/>
<stop offset="1" stop-color="#B4B4B4"/>
</linearGradient>
<linearGradient id="paint38_linear_1144:5923" x1="19.7337" y1="40.9821" x2="23.55" y2="41.0345" gradientUnits="userSpaceOnUse">
<stop stop-color="#E6E6E5"/>
<stop offset="1" stop-color="#B4B4B4"/>
</linearGradient>
<linearGradient id="paint39_linear_1144:5923" x1="13.7564" y1="33.5352" x2="15.8487" y2="41.7465" gradientUnits="userSpaceOnUse">
<stop stop-color="white"/>
<stop offset="1" stop-color="#F3F3F3"/>
</linearGradient>
<linearGradient id="paint40_linear_1144:5923" x1="16.967" y1="18.1204" x2="17.5124" y2="20.2411" gradientUnits="userSpaceOnUse">
<stop stop-color="white"/>
<stop offset="1" stop-color="#F3F3F3"/>
</linearGradient>
<clipPath id="clip0_1144:5923">
<rect width="42.8571" height="36.8571" fill="white" transform="translate(8.57129 11.1426)"/>
</clipPath>
</defs>
</svg>
