<svg width="12" height="12" viewBox="0 0 12 12" fill="none" xmlns="http://www.w3.org/2000/svg">
<path d="M7.41065 2.00586L0.808079 8.61584C0.774862 8.64919 0.750876 8.6913 0.739455 8.73656L0.00762279 11.6771C-0.0142684 11.7656 0.0117155 11.8597 0.0762469 11.9243C0.125074 11.9732 0.191604 12.0002 0.259657 12.0002C0.280501 12.0002 0.301821 11.9977 0.32257 11.9924L3.25999 11.2597C3.30577 11.2483 3.34736 11.2244 3.38058 11.1911L9.98373 4.58163L7.41065 2.00586Z" fill="#18AEE3"/>
<path d="M11.6195 1.10437L10.8845 0.368623C10.3933 -0.123112 9.53715 -0.122636 9.0465 0.368623L8.1462 1.26987L10.7192 3.84554L11.6195 2.9443C11.8649 2.69877 12 2.37196 12 2.02438C12 1.6768 11.8649 1.35 11.6195 1.10437Z" fill="#18AEE3"/>
</svg>
