<svg width="8" height="8" viewBox="0 0 8 8" fill="none" xmlns="http://www.w3.org/2000/svg">
<path d="M0.141321 6.73142L1.26761 7.85851C1.34569 7.93665 1.47234 7.93668 1.55047 7.85858L3.85861 5.55134C3.93671 5.47327 4.0633 5.47327 4.14139 5.55134L6.44953 7.85858C6.52766 7.93668 6.65431 7.93665 6.7324 7.85851L7.85868 6.73142C7.93674 6.65331 7.93671 6.52671 7.85863 6.44863L5.55142 4.14142C5.47332 4.06332 5.47332 3.93668 5.55142 3.85858L7.85858 1.55142C7.93668 1.47332 7.93668 1.34668 7.85858 1.26858L6.73142 0.141421C6.65332 0.0633165 6.52668 0.0633165 6.44858 0.141421L4.14142 2.44858C4.06332 2.52668 3.93668 2.52668 3.85858 2.44858L1.55142 0.141421C1.47332 0.0633165 1.34668 0.0633164 1.26858 0.141421L0.141421 1.26858C0.0633165 1.34668 0.0633166 1.47332 0.141421 1.55142L2.44858 3.85858C2.52668 3.93668 2.52668 4.06332 2.44858 4.14142L0.141371 6.44863C0.063286 6.52671 0.0632634 6.65331 0.141321 6.73142Z" fill="#3DB39E"/>
</svg>
