<svg width="38" height="38" viewBox="0 0 38 38" fill="none" xmlns="http://www.w3.org/2000/svg">
<rect width="38" height="38" rx="4" fill="#60CEF5"/>
<path d="M16.75 19H21.25" stroke="white" stroke-width="2" stroke-linecap="round" stroke-linejoin="round"/>
<path d="M21.25 14.5H22C23.1935 14.5 24.3381 14.9741 25.182 15.818C26.0259 16.6619 26.5 17.8065 26.5 19C26.5 20.1935 26.0259 21.3381 25.182 22.182C24.3381 23.0259 23.1935 23.5 22 23.5H21.25" stroke="white" stroke-width="2" stroke-linecap="round" stroke-linejoin="round"/>
<path d="M16.75 23.5H16C14.8065 23.5 13.6619 23.0259 12.818 22.182C11.9741 21.3381 11.5 20.1935 11.5 19C11.5 17.8065 11.9741 16.6619 12.818 15.818C13.6619 14.9741 14.8065 14.5 16 14.5H16.75" stroke="white" stroke-width="2" stroke-linecap="round" stroke-linejoin="round"/>
</svg>
